<?xml version="1.0" encoding="iso-8859-1"?>
<svg version="1.1" xmlns="http://www.w3.org/2000/svg" xmlns:xlink="http://www.w3.org/1999/xlink"
	 viewBox="0 0 300 300" style="enable-background:new 0 0 300 300;" xml:space="preserve">
<g id="logo" fill="var(--red-light)">
	<path id="XMLID_854_" d="M0,154.51v130h300v-130H0z M280,264.51H20v-90h260V264.51z"/>
	<rect id="XMLID_858_" x="50" y="204.51" width="30" height="20"/>
	<rect id="XMLID_859_" x="110" y="204.51" width="30" height="20"/>
	<rect id="XMLID_889_" x="190" y="204.51" width="60" height="20"/>
	<path id="XMLID_892_" d="M150,51.408c-29.281,0-53.102,23.821-53.102,53.102h20c0-18.252,14.85-33.102,33.102-33.102
		s33.102,14.85,33.102,33.102h20C203.102,75.229,179.281,51.408,150,51.408z"/>
	<path id="XMLID_924_" d="M150,35.49c38.058,0,69.021,30.962,69.021,69.02h20c0-49.086-39.935-89.02-89.021-89.02
		s-89.021,39.934-89.021,89.02h20C80.979,66.452,111.942,35.49,150,35.49z"/>
</g>
</svg>
